<svg width="280" height="36" viewBox="0 0 280 36" fill="none" xmlns="http://www.w3.org/2000/svg">
<g clip-path="url(#clip0_15_72)">
<path d="M114.493 11.1742H96.4497V15.2432L96.9937 15.1936V15.1439C97.0922 14.5485 98.1798 13.4072 99.5146 13.4072C99.5146 13.4072 103.371 13.4072 103.519 13.4072C103.519 13.6057 103.519 34.3972 103.519 34.3972H107.474C107.474 34.3972 107.474 13.6057 107.474 13.4568C107.671 13.4568 111.577 13.4568 111.577 13.4568C112.961 13.4568 113.851 14.2011 113.999 14.8958V14.995H114.592L114.543 11.2734H114.493V11.1742Z" fill="#183964"/>
<path d="M24.4206 11.1742H24.3218V11.72L24.3712 11.7697C24.7172 11.9681 25.0633 12.8117 25.0633 13.8538V34.3972H28.9192C28.9192 34.3972 28.9192 24.0262 28.9192 23.8277C29.1169 23.8277 30.6494 23.8277 30.6494 23.8277C32.1819 23.927 32.7751 24.9194 33.5166 26.2096L33.6154 26.3585L34.1098 27.1524C34.9502 28.5418 36.0872 30.4274 37.2242 32.2138C38.0646 33.4544 39.1027 34.1987 40.4374 34.3972C41.3767 34.546 43.2553 34.4964 43.9968 34.2979L44.8372 34.0994L45.1833 34.0002L43.9968 33.6528C43.5025 33.504 42.7609 33.1566 41.7722 32.0153C41.1295 31.3206 40.1408 29.6831 38.6083 27.3013L37.1253 24.9194L37.0759 24.8698C36.6804 24.2743 35.9883 23.3315 34.8513 22.736C37.0264 22.0414 39.1521 20.0565 39.1521 17.0792C39.1521 16.2356 38.9544 14.6477 37.5208 13.2583C36.0872 11.8689 33.8132 11.1742 30.7483 11.1742H24.4206ZM31.0448 13.2583C34.9996 13.4072 35.0985 16.7814 35.0985 17.1288C35.0985 20.5031 32.6268 21.694 30.4517 21.694C30.4517 21.694 29.0675 21.6444 28.9192 21.6444C28.9192 21.4459 28.9192 13.4568 28.9192 13.2583C29.3641 13.2583 30.1056 13.2087 31.0448 13.2583Z" fill="#183964"/>
<path d="M63.9686 11.1742H63.8696L63.9189 11.7697H63.9686C64.3147 11.9186 64.6111 12.7621 64.6111 13.4568V34.3476H71.2352C75.5856 34.3476 79.2437 33.0078 81.7153 30.4275C83.792 28.2937 84.9288 25.3661 84.9288 22.3887C84.9288 20.6024 84.3356 17.8732 82.6054 15.6402C80.3313 12.6629 76.7224 11.1246 71.8285 11.1246L63.9686 11.1742ZM68.5661 13.4072C68.7636 13.4072 70.6423 13.4072 70.6423 13.4072C71.1859 13.4072 72.5699 13.4568 73.559 13.6057C80.0841 14.5981 80.7764 20.1062 80.7764 22.3887C80.7764 24.2744 80.4302 27.0036 78.7991 29.0877C77.2172 31.1222 74.7451 32.1643 71.3838 32.1643C70.5927 32.1643 69.604 32.1643 68.5164 32.1146C68.5661 31.9658 68.5661 13.6057 68.5661 13.4072Z" fill="#183964"/>
<path d="M92.9369 11.1742H88.3887V11.72L88.4384 11.7697C88.8337 11.9681 89.1301 12.7125 89.1301 13.7049V34.3972H92.9862V11.2238L92.9369 11.1742Z" fill="#183964"/>
<path d="M58.977 11.1742H45.9756L46.0253 11.72H46.0745C46.4206 11.9185 46.816 12.7125 46.816 13.8041V34.3476H59.7677L60.7071 30.2289L60.1635 30.0305L60.0149 30.2786C58.9273 31.9657 57.8402 32.1642 54.0831 32.1642C52.7483 32.2138 51.4135 32.0649 50.6224 32.0153C50.6224 31.8665 50.6224 22.736 50.6224 22.5376C50.8203 22.5376 57.1972 22.5376 57.1972 22.5376V20.4535C57.1972 20.4535 50.8203 20.4535 50.6224 20.4535C50.6224 20.255 50.6224 13.4072 50.6224 13.2583C50.8203 13.2583 55.9614 13.3079 55.9614 13.3079C57.1479 13.3079 58.4827 14.4492 58.5816 15.1439V15.2432H59.1252L58.977 11.1742Z" fill="#183964"/>
<path d="M167.384 11.1742H162.836L162.885 11.72H162.935C163.33 11.9185 163.627 12.7125 163.627 13.7049V34.3972H167.483V11.2238L167.384 11.1742Z" fill="#183964"/>
<path d="M221.369 11.1742H208.417L208.466 11.7697H208.515C208.862 11.9682 209.257 12.7125 209.257 13.8042V34.3476H222.209L223.148 30.229L222.555 30.0305L222.407 30.2786C221.319 31.9658 220.231 32.1643 216.524 32.1643C215.189 32.2139 213.854 32.065 213.064 32.0154C213.064 31.8665 213.064 22.7361 213.064 22.5376C213.261 22.5376 219.639 22.5376 219.639 22.5376V20.4535C219.639 20.4535 213.261 20.4535 213.064 20.4535C213.064 20.255 213.064 13.4072 213.064 13.2584C213.261 13.2584 218.402 13.308 218.402 13.308C219.886 13.308 220.973 14.3996 220.973 15.144V15.2432L221.566 15.1936L221.468 11.1246L221.369 11.1742Z" fill="#183964"/>
<path d="M173.663 17.0294C173.614 20.2548 175.542 21.8427 178.706 23.4306L179.892 24.0261C182.364 25.2666 183.995 26.0605 183.995 28.3928C183.995 28.7898 183.896 30.1791 182.858 31.2708C182.117 32.0152 181.078 32.3625 179.793 32.3625C176.085 32.3129 174.751 29.4348 174.256 27.7477L174.157 27.45L173.367 27.5988L173.564 32.4618L173.762 32.561C174.998 33.2557 177.074 34.4466 179.991 34.4962C182.117 34.4962 184.242 33.6527 185.676 32.2137C186.961 30.9235 187.653 29.3356 187.653 27.5492C187.653 23.4802 184.835 22.0412 181.869 20.4533L181.326 20.1555C178.112 18.5677 177.025 17.8233 177.025 16.037C177.025 14.7964 177.964 12.9108 180.535 12.9604C183.649 13.01 184.984 15.243 185.28 16.4339L185.379 16.7813L186.17 16.682L185.873 12.4146L185.725 12.3153C183.946 11.1244 181.721 10.9755 180.831 10.9755C177.371 10.9259 173.713 13.0596 173.663 17.0294Z" fill="#183964"/>
<path d="M122.847 17.0288C122.797 20.2542 124.725 21.8421 127.889 23.43L129.075 24.0255C131.547 25.266 133.178 26.06 133.178 28.3922C133.178 28.7892 133.08 30.1786 132.041 31.2702C131.3 32.0146 130.262 32.362 128.976 32.362C125.269 32.3123 123.934 29.4342 123.44 27.7471L123.341 27.4494L122.55 27.5982L122.748 32.4612L122.945 32.5604C124.181 33.2551 126.258 34.4461 129.174 34.4957C131.3 34.4957 133.425 33.6521 134.859 32.2131C136.144 30.9229 136.836 29.335 136.836 27.5486C136.836 23.4796 134.019 22.0406 131.053 20.4527L130.509 20.155C127.296 18.5671 126.208 17.8228 126.208 16.0364C126.208 14.7958 127.147 12.9102 129.718 12.9598C132.832 13.0094 134.167 15.2424 134.464 16.4333L134.563 16.7807L135.353 16.6814L135.106 12.4636L134.958 12.3643C133.178 11.1734 130.954 11.0246 130.064 11.0246C126.604 10.9253 122.896 13.0591 122.847 17.0288Z" fill="#183964"/>
<path d="M191.017 17.0286C190.967 20.254 192.895 21.8419 196.059 23.4298L197.245 24.0253C199.717 25.2658 201.349 26.0597 201.349 28.392C201.349 28.789 201.25 30.1784 200.212 31.27C199.47 32.0144 198.432 32.3617 197.147 32.3617C193.439 32.3121 192.104 29.434 191.61 27.7469L191.511 27.4492L190.72 27.598L190.918 32.461L191.116 32.5602C192.351 33.2549 194.428 34.4458 197.344 34.4955C199.47 34.4955 201.596 33.6519 203.029 32.2129C204.314 30.9227 205.007 29.3348 205.007 27.5484C205.007 23.4794 202.189 22.0404 199.223 20.4525L198.679 20.1547C195.466 18.5669 194.378 17.8226 194.378 16.0362C194.378 15.2422 194.724 14.4483 195.318 13.8528C195.96 13.2573 196.85 12.91 197.888 12.91C201.002 12.9596 202.337 15.1926 202.634 16.3835L202.733 16.6812L203.524 16.582L203.277 12.3641L203.128 12.2649C201.349 11.074 199.124 10.9251 198.234 10.9251C194.774 10.9251 191.066 13.0588 191.017 17.0286Z" fill="#183964"/>
<path d="M157.743 11.1743H154.679L154.728 11.7202H154.777C154.926 11.8194 155.42 12.1667 155.42 13.6058V26.7555C155.42 29.2863 154.481 32.3628 150.032 32.3628C145.83 32.3628 144.94 29.8321 144.94 26.0608V11.1247H140.095L140.144 11.6209H140.194C140.491 11.7698 141.035 12.4148 141.035 13.6554V26.0112C141.035 33.7026 146.077 34.5462 149.883 34.5462C151.762 34.5462 157.793 34.0003 157.793 26.7555V11.0751L157.743 11.1743Z" fill="#183964"/>
<path d="M3.21325 14.4978L3.26268 14.5475L3.21325 14.4978C1.18643 16.7308 0 19.7081 0 22.7847C0 26.2086 1.33474 29.2851 3.75703 31.5181C6.08045 33.6518 9.14541 34.7931 12.4575 34.7931C14.1877 34.7931 17.5987 34.4954 20.8614 32.4609L21.0097 32.3617L21.4052 27.5484L20.7625 27.4987L20.6637 27.6972C18.2414 32.9075 14.4843 32.1632 13.0507 32.1632C6.67368 32.1632 4.49854 27.4491 4.49854 22.3381C4.49854 17.4255 6.67368 13.2077 13.1002 13.2077C15.0776 13.2077 18.6369 13.158 20.5154 17.624L20.6142 17.8721L21.2075 17.6737L20.812 12.6618L20.6637 12.6122C17.6482 11.2724 15.2259 10.6769 12.8036 10.6769C8.89821 10.6273 5.58613 11.9671 3.21325 14.4978Z" fill="#183964"/>
<path d="M268.234 26.8539C263.933 26.1592 259.287 25.7623 255.876 26.3577C255.678 26.4073 255.529 26.2584 255.529 26.06C255.529 24.869 255.529 20.9985 254.59 16.1852C254.59 16.086 254.541 16.0364 254.442 15.9867C243.22 8.09688 233.086 2.83697 228.934 0.852102C228.637 0.703235 228.34 1.10021 228.588 1.34832C240.699 12.5132 244.951 31.5183 245.494 34.0491C245.544 34.1979 245.692 34.2972 245.84 34.2972C259.435 31.6672 273.079 34.9423 276.885 35.9843C277.182 36.0835 277.38 35.6866 277.182 35.4881C274.364 32.4612 271.398 29.6327 268.383 26.9532C268.383 26.9035 268.333 26.8539 268.234 26.8539Z" fill="#183964"/>
<path d="M279.655 28.7894C268.73 14.1013 253.208 3.2838 248.314 0.058383C248.017 -0.140104 247.721 0.207248 247.919 0.50498C251.675 5.46714 253.603 11.1737 254.543 15.9373C254.543 16.0366 254.592 16.0862 254.642 16.1358C259.14 19.3116 263.738 22.8844 268.286 26.8045C268.335 26.8541 268.385 26.8541 268.434 26.8541C273.18 27.6481 277.53 28.7398 279.309 29.236C279.606 29.3352 279.804 29.0375 279.655 28.7894Z" fill="#183964"/>
<path d="M114.493 11.1742H96.4497V15.2432L96.9937 15.1936V15.1439C97.0922 14.5485 98.1798 13.4072 99.5146 13.4072C99.5146 13.4072 103.371 13.4072 103.519 13.4072C103.519 13.6057 103.519 34.3972 103.519 34.3972H107.474C107.474 34.3972 107.474 13.6057 107.474 13.4568C107.671 13.4568 111.577 13.4568 111.577 13.4568C112.961 13.4568 113.851 14.2011 113.999 14.8958V14.995H114.592L114.543 11.2734H114.493V11.1742Z" fill="#183964"/>
<path d="M24.4206 11.1742H24.3218V11.72L24.3712 11.7697C24.7172 11.9681 25.0633 12.8117 25.0633 13.8538V34.3972H28.9192C28.9192 34.3972 28.9192 24.0262 28.9192 23.8277C29.1169 23.8277 30.6494 23.8277 30.6494 23.8277C32.1819 23.927 32.7751 24.9194 33.5166 26.2096L33.6154 26.3585L34.1098 27.1524C34.9502 28.5418 36.0872 30.4274 37.2242 32.2138C38.0646 33.4544 39.1027 34.1987 40.4374 34.3972C41.3767 34.546 43.2553 34.4964 43.9968 34.2979L44.8372 34.0994L45.1833 34.0002L43.9968 33.6528C43.5025 33.504 42.7609 33.1566 41.7722 32.0153C41.1295 31.3206 40.1408 29.6831 38.6083 27.3013L37.1253 24.9194L37.0759 24.8698C36.6804 24.2743 35.9883 23.3315 34.8513 22.736C37.0264 22.0414 39.1521 20.0565 39.1521 17.0792C39.1521 16.2356 38.9544 14.6477 37.5208 13.2583C36.0872 11.8689 33.8132 11.1742 30.7483 11.1742H24.4206ZM31.0448 13.2583C34.9996 13.4072 35.0985 16.7814 35.0985 17.1288C35.0985 20.5031 32.6268 21.694 30.4517 21.694C30.4517 21.694 29.0675 21.6444 28.9192 21.6444C28.9192 21.4459 28.9192 13.4568 28.9192 13.2583C29.3641 13.2583 30.1056 13.2087 31.0448 13.2583Z" fill="#183964"/>
<path d="M63.9686 11.1742H63.8696L63.9189 11.7697H63.9686C64.3147 11.9186 64.6111 12.7621 64.6111 13.4568V34.3476H71.2352C75.5856 34.3476 79.2437 33.0078 81.7153 30.4275C83.792 28.2937 84.9288 25.3661 84.9288 22.3887C84.9288 20.6024 84.3356 17.8732 82.6054 15.6402C80.3313 12.6629 76.7224 11.1246 71.8285 11.1246L63.9686 11.1742ZM68.5661 13.4072C68.7636 13.4072 70.6423 13.4072 70.6423 13.4072C71.1859 13.4072 72.5699 13.4568 73.559 13.6057C80.0841 14.5981 80.7764 20.1062 80.7764 22.3887C80.7764 24.2744 80.4302 27.0036 78.7991 29.0877C77.2172 31.1222 74.7451 32.1643 71.3838 32.1643C70.5927 32.1643 69.604 32.1643 68.5164 32.1146C68.5661 31.9658 68.5661 13.6057 68.5661 13.4072Z" fill="#183964"/>
<path d="M92.9369 11.1742H88.3887V11.72L88.4384 11.7697C88.8337 11.9681 89.1301 12.7125 89.1301 13.7049V34.3972H92.9862V11.2238L92.9369 11.1742Z" fill="#183964"/>
<path d="M58.977 11.1742H45.9756L46.0253 11.72H46.0745C46.4206 11.9185 46.816 12.7125 46.816 13.8041V34.3476H59.7677L60.7071 30.2289L60.1635 30.0305L60.0149 30.2786C58.9273 31.9657 57.8402 32.1642 54.0831 32.1642C52.7483 32.2138 51.4135 32.0649 50.6224 32.0153C50.6224 31.8665 50.6224 22.736 50.6224 22.5376C50.8203 22.5376 57.1972 22.5376 57.1972 22.5376V20.4535C57.1972 20.4535 50.8203 20.4535 50.6224 20.4535C50.6224 20.255 50.6224 13.4072 50.6224 13.2583C50.8203 13.2583 55.9614 13.3079 55.9614 13.3079C57.1479 13.3079 58.4827 14.4492 58.5816 15.1439V15.2432H59.1252L58.977 11.1742Z" fill="#183964"/>
<path d="M167.384 11.1742H162.836L162.885 11.72H162.935C163.33 11.9185 163.627 12.7125 163.627 13.7049V34.3972H167.483V11.2238L167.384 11.1742Z" fill="#183964"/>
<path d="M221.369 11.1742H208.417L208.466 11.7697H208.515C208.862 11.9682 209.257 12.7125 209.257 13.8042V34.3476H222.209L223.148 30.229L222.555 30.0305L222.407 30.2786C221.319 31.9658 220.231 32.1643 216.524 32.1643C215.189 32.2139 213.854 32.065 213.064 32.0154C213.064 31.8665 213.064 22.7361 213.064 22.5376C213.261 22.5376 219.639 22.5376 219.639 22.5376V20.4535C219.639 20.4535 213.261 20.4535 213.064 20.4535C213.064 20.255 213.064 13.4072 213.064 13.2584C213.261 13.2584 218.402 13.308 218.402 13.308C219.886 13.308 220.973 14.3996 220.973 15.144V15.2432L221.566 15.1936L221.468 11.1246L221.369 11.1742Z" fill="#183964"/>
<path d="M173.663 17.0294C173.614 20.2548 175.542 21.8427 178.706 23.4306L179.892 24.0261C182.364 25.2666 183.995 26.0605 183.995 28.3928C183.995 28.7898 183.896 30.1791 182.858 31.2708C182.117 32.0152 181.078 32.3625 179.793 32.3625C176.085 32.3129 174.751 29.4348 174.256 27.7477L174.157 27.45L173.367 27.5988L173.564 32.4618L173.762 32.561C174.998 33.2557 177.074 34.4466 179.991 34.4962C182.117 34.4962 184.242 33.6527 185.676 32.2137C186.961 30.9235 187.653 29.3356 187.653 27.5492C187.653 23.4802 184.835 22.0412 181.869 20.4533L181.326 20.1555C178.112 18.5677 177.025 17.8233 177.025 16.037C177.025 14.7964 177.964 12.9108 180.535 12.9604C183.649 13.01 184.984 15.243 185.28 16.4339L185.379 16.7813L186.17 16.682L185.873 12.4146L185.725 12.3153C183.946 11.1244 181.721 10.9755 180.831 10.9755C177.371 10.9259 173.713 13.0596 173.663 17.0294Z" fill="#183964"/>
<path d="M122.847 17.0288C122.797 20.2542 124.725 21.8421 127.889 23.43L129.075 24.0255C131.547 25.266 133.178 26.06 133.178 28.3922C133.178 28.7892 133.08 30.1786 132.041 31.2702C131.3 32.0146 130.262 32.362 128.976 32.362C125.269 32.3123 123.934 29.4342 123.44 27.7471L123.341 27.4494L122.55 27.5982L122.748 32.4612L122.945 32.5604C124.181 33.2551 126.258 34.4461 129.174 34.4957C131.3 34.4957 133.425 33.6521 134.859 32.2131C136.144 30.9229 136.836 29.335 136.836 27.5486C136.836 23.4796 134.019 22.0406 131.053 20.4527L130.509 20.155C127.296 18.5671 126.208 17.8228 126.208 16.0364C126.208 14.7958 127.147 12.9102 129.718 12.9598C132.832 13.0094 134.167 15.2424 134.464 16.4333L134.563 16.7807L135.353 16.6814L135.106 12.4636L134.958 12.3643C133.178 11.1734 130.954 11.0246 130.064 11.0246C126.604 10.9253 122.896 13.0591 122.847 17.0288Z" fill="#183964"/>
<path d="M191.017 17.0286C190.967 20.254 192.895 21.8419 196.059 23.4298L197.245 24.0253C199.717 25.2658 201.349 26.0597 201.349 28.392C201.349 28.789 201.25 30.1784 200.212 31.27C199.47 32.0144 198.432 32.3617 197.147 32.3617C193.439 32.3121 192.104 29.434 191.61 27.7469L191.511 27.4492L190.72 27.598L190.918 32.461L191.116 32.5602C192.351 33.2549 194.428 34.4458 197.344 34.4955C199.47 34.4955 201.596 33.6519 203.029 32.2129C204.314 30.9227 205.007 29.3348 205.007 27.5484C205.007 23.4794 202.189 22.0404 199.223 20.4525L198.679 20.1547C195.466 18.5669 194.378 17.8226 194.378 16.0362C194.378 15.2422 194.724 14.4483 195.318 13.8528C195.96 13.2573 196.85 12.91 197.888 12.91C201.002 12.9596 202.337 15.1926 202.634 16.3835L202.733 16.6812L203.524 16.582L203.277 12.3641L203.128 12.2649C201.349 11.074 199.124 10.9251 198.234 10.9251C194.774 10.9251 191.066 13.0588 191.017 17.0286Z" fill="#183964"/>
<path d="M157.743 11.1743H154.679L154.728 11.7202H154.777C154.926 11.8194 155.42 12.1667 155.42 13.6058V26.7555C155.42 29.2863 154.481 32.3628 150.032 32.3628C145.83 32.3628 144.94 29.8321 144.94 26.0608V11.1247H140.095L140.144 11.6209H140.194C140.491 11.7698 141.035 12.4148 141.035 13.6554V26.0112C141.035 33.7026 146.077 34.5462 149.883 34.5462C151.762 34.5462 157.793 34.0003 157.793 26.7555V11.0751L157.743 11.1743Z" fill="#183964"/>
<path d="M3.21325 14.4978L3.26268 14.5475L3.21325 14.4978C1.18643 16.7308 0 19.7081 0 22.7847C0 26.2086 1.33474 29.2851 3.75703 31.5181C6.08045 33.6518 9.14541 34.7931 12.4575 34.7931C14.1877 34.7931 17.5987 34.4954 20.8614 32.4609L21.0097 32.3617L21.4052 27.5484L20.7625 27.4987L20.6637 27.6972C18.2414 32.9075 14.4843 32.1632 13.0507 32.1632C6.67368 32.1632 4.49854 27.4491 4.49854 22.3381C4.49854 17.4255 6.67368 13.2077 13.1002 13.2077C15.0776 13.2077 18.6369 13.158 20.5154 17.624L20.6142 17.8721L21.2075 17.6737L20.812 12.6618L20.6637 12.6122C17.6482 11.2724 15.2259 10.6769 12.8036 10.6769C8.89821 10.6273 5.58613 11.9671 3.21325 14.4978Z" fill="#183964"/>
<path d="M268.234 26.8539C263.933 26.1592 259.287 25.7623 255.876 26.3577C255.678 26.4073 255.529 26.2584 255.529 26.06C255.529 24.869 255.529 20.9985 254.59 16.1852C254.59 16.086 254.541 16.0364 254.442 15.9867C243.22 8.09688 233.086 2.83697 228.934 0.852102C228.637 0.703235 228.34 1.10021 228.588 1.34832C240.699 12.5132 244.951 31.5183 245.494 34.0491C245.544 34.1979 245.692 34.2972 245.84 34.2972C259.435 31.6672 273.079 34.9423 276.885 35.9843C277.182 36.0835 277.38 35.6866 277.182 35.4881C274.364 32.4612 271.398 29.6327 268.383 26.9532C268.383 26.9035 268.333 26.8539 268.234 26.8539Z" fill="#183964"/>
<path d="M279.655 28.7894C268.73 14.1013 253.208 3.2838 248.314 0.058383C248.017 -0.140104 247.721 0.207248 247.919 0.50498C251.675 5.46714 253.603 11.1737 254.543 15.9373C254.543 16.0366 254.592 16.0862 254.642 16.1358C259.14 19.3116 263.738 22.8844 268.286 26.8045C268.335 26.8541 268.385 26.8541 268.434 26.8541C273.18 27.6481 277.53 28.7398 279.309 29.236C279.606 29.3352 279.804 29.0375 279.655 28.7894Z" fill="#183964"/>
</g>
<defs>
<clipPath id="clip0_15_72">
<rect width="280" height="36" fill="white"/>
</clipPath>
</defs>
</svg>
