<svg width="12" height="16" viewBox="0 0 12 16" fill="none" xmlns="http://www.w3.org/2000/svg">
<path d="M4.5 0.5L3.75 1.25H0.75C0.3 1.25 0 1.55 0 2C0 2.45 0.3 2.75 0.75 2.75H2.25H9.75H11.25C11.7 2.75 12 2.45 12 2C12 1.55 11.7 1.25 11.25 1.25H8.25L7.5 0.5H4.5ZM0.75 4.25V14C0.75 14.825 1.425 15.5 2.25 15.5H9.75C10.575 15.5 11.25 14.825 11.25 14V4.25H0.75ZM3.75 5.75C4.2 5.75 4.5 6.05 4.5 6.5V13.25C4.5 13.7 4.2 14 3.75 14C3.3 14 3 13.7 3 13.25V6.5C3 6.05 3.3 5.75 3.75 5.75ZM8.25 5.75C8.7 5.75 9 6.05 9 6.5V13.25C9 13.7 8.7 14 8.25 14C7.8 14 7.5 13.7 7.5 13.25V6.5C7.5 6.05 7.8 5.75 8.25 5.75Z" fill="#23538F"/>
</svg>
